Coordinates
version=1
nRows=17
nColumns=34
inDegrees=yes

Units are S.I. units (second, meters, Newtons, ...)
If the header above contains a line with 'inDegrees', this indicates whether rotational values are in degrees (yes) or radians (no).

endheader
time	pelvis_tilt	pelvis_list	pelvis_rotation	pelvis_tx	pelvis_ty	pelvis_tz	hip_flexion_r	hip_adduction_r	hip_rotation_r	knee_angle_r	ankle_angle_r	subtalar_angle_r	mtp_angle_r	hip_flexion_l	hip_adduction_l	hip_rotation_l	knee_angle_l	ankle_angle_l	subtalar_angle_l	mtp_angle_l	lumbar_extension	lumbar_bending	lumbar_rotation	arm_flex_r	arm_add_r	arm_rot_r	elbow_flex_r	pro_sup_r	arm_flex_l	arm_add_l	arm_rot_l	elbow_flex_l	pro_sup_l
     18.71666670	     -3.24938639	      7.81040348	      2.69558395	      0.19695135	      0.98552057	      0.03540295	     14.91706167	      0.45271426	     -6.24446303	     19.09508596	      5.28354851	    -25.48951851	      0.00000000	     51.97366166	     -1.81011912	      4.89449676	     57.81390414	      9.25143902	    -15.44702613	      0.00000000	    -16.22382948	     -5.54986193	     -0.41383271	     64.57185396	     11.23371670	     66.56307323	    127.11189273	    102.45162507	     49.41737603	     21.04143860	     60.32217518	    126.86618114	     86.17406962
     18.73333330	     -2.89565633	      8.47013107	      2.09830952	      0.19872564	      0.99010171	      0.03603801	     13.68072639	     -0.13260071	     -5.71291066	     17.96844787	      6.90669170	    -23.19581590	      0.00000000	     50.86016529	     -1.76916130	      4.10000680	     60.43768381	      8.66460554	    -17.66054161	      0.00000000	    -15.72981930	     -6.24702653	     -0.44568886	     64.03495868	     11.86983314	     67.36405809	    127.15053693	    102.32111151	     48.67641861	     20.57229735	     59.31530364	    126.41960593	     85.66010754
     18.75000000	     -2.57145556	      8.73751019	      2.22594499	      0.19779473	      0.99144386	      0.03559118	     12.38405390	     -0.46622411	     -6.04776888	     16.68057496	      7.98206355	    -21.31235273	      0.00000000	     50.10013626	     -1.49666791	      4.06326725	     62.38051399	      7.95118183	    -19.62883937	      0.00000000	    -15.44180276	     -6.46809289	     -0.51915137	     63.94046139	     11.94246478	     67.19661238	    127.01721641	    102.08703385	     48.42954794	     20.58120716	     59.22396399	    125.85136854	     85.10793825
     18.76666670	     -2.93962377	      9.23233217	      2.52317601	      0.19717623	      0.99442223	      0.03524145	     12.01282050	     -1.01943385	     -6.09208304	     15.72470137	      8.97894751	    -19.68098957	      0.00000000	     50.22057535	     -1.00264760	      3.71723446	     64.16296100	      6.77459906	    -21.11644299	      0.00000000	    -14.94061700	     -6.87710252	     -0.30388527	     64.27524344	     11.88570095	     67.42803545	    127.20433256	    101.84451910	     48.57395919	     20.92824929	     60.50677606	    126.47805527	     84.71672089
     18.78333330	     -2.43184396	      9.51494088	      2.80517784	      0.20114132	      0.99301156	      0.03440103	     10.56362495	     -1.31991725	     -6.24191316	     14.50818853	      9.69365569	    -18.45468121	      0.00000000	     49.97753788	     -0.71899420	      3.66939417	     66.21171560	      5.20634051	    -22.19009836	      0.00000000	    -14.92044858	     -7.05487757	     -0.07213454	     64.57732157	     11.35823500	     66.57702874	    127.17540840	    101.54426833	     48.80666696	     21.49261547	     60.76946880	    126.51135058	     84.29404976
     18.80000000	     -2.54210357	      9.77442613	      2.68490247	      0.20194263	      0.99381317	      0.03363276	     10.05084622	     -1.58340378	     -5.85565315	     13.74796649	     10.59226088	    -17.63538910	      0.00000000	     49.95988959	     -0.61925917	      3.41125135	     67.97245243	      4.74681408	    -22.66657887	      0.00000000	    -14.20483867	     -7.26192788	      0.25162127	     65.09887175	     11.34121379	     66.77171006	    127.36172830	    101.43898650	     48.92351742	     21.73548413	     61.35658538	    126.79488436	     84.13726842
     18.81666670	     -2.27774147	     10.17285629	      2.84817187	      0.20439533	      0.99642103	      0.03328013	      9.16017926	     -2.03511101	     -5.66159371	     13.14842775	     10.94703580	    -16.89215749	      0.00000000	     49.56717497	     -0.29159480	      3.22787377	     69.38685093	      4.79477228	    -23.33058239	      0.00000000	    -13.77965321	     -7.45705465	      0.30222340	     65.18141910	     11.30490580	     66.99554642	    127.40671686	    101.37016941	     49.56605883	     21.88877449	     61.50685813	    126.55930968	     83.99346474
     18.83333330	     -2.45628588	     10.41797733	      3.02858082	      0.19957059	      0.99547486	      0.03167365	      9.19738062	     -2.35873276	     -6.01914244	     12.75098888	     11.12815871	    -16.83102002	      0.00000000	     49.31895791	      0.18735174	      3.25921033	     70.51136939	      5.56535871	    -23.69793996	      0.00000000	    -13.30863135	     -7.42212073	      0.45552280	     65.78500506	     11.25246197	     66.65602238	    127.28414110	    101.32169877	     49.92201305	     22.51153150	     61.83395096	    127.00582222	     83.93414373
     18.85000000	     -2.01203924	     10.37513618	      3.38861650	      0.21040163	      0.99653187	      0.03098595	      7.92684923	     -2.32593002	     -6.52080299	     11.56272964	     11.42264411	    -15.82741434	      0.00000000	     48.61985738	      0.44132962	      3.54292703	     72.51641939	      6.56328636	    -23.38584826	      0.00000000	    -12.98260091	     -7.16989568	      0.65074443	     65.69648858	     10.92343858	     66.12551467	    127.34044817	    101.15218657	     50.19909285	     22.72853511	     62.60490009	    127.46430195	     83.60623388
     18.86666670	     -2.55700282	     10.60322005	      3.47604536	      0.20339458	      0.99730270	      0.02965846	      8.20964412	     -2.54627309	     -6.26781118	     11.07881965	     11.32363166	    -15.53921367	      0.00000000	     48.13861378	      0.94188207	      3.52086219	     73.43608026	      7.58504558	    -23.69333340	      0.00000000	    -12.39982925	     -7.25980945	      0.42620025	     66.14072307	     10.92197494	     65.99594254	    127.32255541	    101.13519137	     50.59772864	     22.94971476	     62.60109564	    127.56669278	     83.55790735
     18.88333330	     -2.56982477	     10.58887406	      3.45617193	      0.20658398	      0.99685073	      0.02877723	      7.93376002	     -2.59188325	     -6.57801357	     10.87874366	     11.45007146	    -14.83862880	      0.00000000	     47.61588389	      0.90921293	      3.43042493	     74.69609193	     10.26743732	    -21.62645648	      0.00000000	    -12.06350192	     -7.04474569	      0.19167994	     66.56451028	     11.13957498	     65.73206158	    126.81815733	    101.03631808	     51.17778933	     22.77574520	     62.21921263	    127.40704607	     83.14746872
     18.90000000	     -2.67352901	     10.73775075	      3.55739426	      0.20614928	      0.99719368	      0.02778099	      7.99703380	     -2.83283622	     -7.12669782	     10.55098408	     10.70983350	    -14.90567819	      0.00000000	     47.27970045	      1.27207245	      3.36005342	     75.64229670	     10.95667598	    -21.69167799	      0.00000000	    -11.61516538	     -7.07279570	      0.25332220	     67.05478044	     11.03713599	     65.56886381	    126.78383025	    101.01234971	     51.26492698	     23.03905909	     62.27519503	    127.69378442	     83.06027540
     18.91666670	     -2.57687573	     10.86077091	      3.57391206	      0.20572449	      0.99801335	      0.02718793	      7.82224572	     -3.00439136	     -7.15906328	     10.51257259	     10.65229813	    -14.91537201	      0.00000000	     47.13774867	      1.48275618	      3.24117852	     76.88453589	     11.00332604	    -21.71824092	      0.00000000	    -11.28878889	     -7.12563128	      0.28234341	     67.13402182	     11.12259848	     65.56375093	    126.80915332	    101.01183242	     51.31538980	     23.07779606	     62.28935432	    127.71578191	     83.05451977
     18.93333330	     -2.37648836	     10.75927220	      3.75115954	      0.20735679	      0.99808883	      0.02546982	      7.47188653	     -2.99528652	     -7.74354303	     10.03709204	      9.41823183	    -15.24431155	      0.00000000	     46.66267536	      1.73830047	      3.42386304	     78.23600097	     11.96530376	    -21.32228444	      0.00000000	    -10.94612896	     -6.80568061	      0.04499020	     67.79773509	     11.37063291	     65.58805435	    126.99633499	    100.99865854	     51.69274470	     23.16838677	     62.48979567	    127.68343499	     82.90235556
     18.95000000	     -1.88039988	     10.80332167	      3.43107108	      0.20744714	      0.99623686	      0.02516073	      6.90183599	     -2.97477655	     -7.16637717	      9.91003592	      9.42240438	    -16.10408189	      0.00000000	     45.73808574	      1.80087491	      3.20847845	     79.40389691	     13.89320927	    -19.71060630	      0.00000000	    -10.90878490	     -6.90905700	     -0.36331047	     68.06517865	     11.91336751	     65.57907500	    126.71897292	    100.95875625	     51.76338916	     22.87656803	     62.55336522	    127.39591243	     82.48998686
     18.96666670	     -1.82602069	     10.82614632	      3.42673859	      0.21161270	      0.99886405	      0.02394874	      6.69849117	     -3.01584100	     -7.11583148	      9.54125134	      9.71412120	    -16.29642532	      0.00000000	     45.02804674	      2.23356536	      3.22822950	     80.26145270	     14.73664179	    -19.99661475	      0.00000000	    -10.36833142	     -6.69538702	     -0.20360438	     67.90505845	     11.96713610	     65.70937009	    126.83952618	    100.95970277	     51.58961898	     22.49195492	     62.56519834	    127.31951025	     82.42650715
     18.98333330	     -1.60516947	     10.89112339	      3.43736317	      0.21168544	      0.99844553	      0.02332951	      6.20776615	     -3.05367542	     -6.86156247	      9.10618863	     10.07637372	    -16.46421617	      0.00000000	     44.11992279	      2.70154134	      3.24230287	     80.79587838	     16.91119989	    -18.56835294	      0.00000000	    -10.07047553	     -6.81824843	     -0.56822836	     67.52939841	     12.17784369	     65.70650871	    126.67526927	    100.94491622	     51.31240378	     22.13874941	     62.26856564	    127.02713987	     82.03415278
